<?xml version="1.0" encoding="UTF-8" standalone="no"?>
<!-- Created with Inkscape (http://www.inkscape.org/) -->

<svg
   width="40.345943mm"
   height="39.013512mm"
   viewBox="0 0 40.345943 39.013512"
   version="1.1"
   id="svg1"
   xml:space="preserve"
   xmlns="http://www.w3.org/2000/svg"
   xmlns:svg="http://www.w3.org/2000/svg"><defs
     id="defs1" /><g
     id="layer1"
     transform="translate(-33.171654,-133.31021)"><path
       d="m 33.171652,171.55096 v -0.7728 h 10.20326 c 5.611788,0 10.215223,-0.0193 10.229855,-0.0431 0.0146,-0.0237 0.0426,-0.1636 0.06213,-0.31095 l 0.03556,-0.26791 -0.551988,-0.11233 c -0.303596,-0.0618 -1.763166,-0.3639 -3.243493,-0.67135 -5.340296,-1.10917 -13.061066,-2.70916 -14.470177,-2.99869 -1.768196,-0.3633 -1.838547,-0.38094 -1.839594,-0.46116 -0.0018,-0.13668 0.34026,-2.03873 0.373697,-2.07807 0.0194,-0.0228 1.70026,0.31785 3.73523,0.75708 2.034971,0.43922 6.53854,1.41126 10.007938,2.16007 3.469393,0.74882 6.327525,1.36149 6.351409,1.36149 0.06157,0 0.225762,-0.75437 0.174381,-0.80118 -0.02338,-0.0213 -4.287586,-1.87999 -9.476059,-4.13046 -5.188479,-2.25049 -9.449976,-4.10613 -9.469995,-4.12366 -0.0313,-0.0274 0.710425,-2.16268 0.772965,-2.22523 0.0125,-0.0125 4.276876,1.76807 9.476402,3.95681 5.19952,2.18874 9.491175,3.9901 9.537003,4.00303 0.05518,0.0156 0.149036,-0.0755 0.277969,-0.26967 l 0.194645,-0.29316 -1.716991,-1.27356 c -8.355078,-6.19728 -15.053412,-11.17492 -15.110744,-11.22902 -0.05639,-0.0532 0.08276,-0.3059 0.737716,-1.33995 0.443956,-0.70092 0.834966,-1.30264 0.868922,-1.33718 0.04716,-0.048 0.629903,0.36167 2.464392,1.73216 1.321461,0.98722 5.082322,3.79759 8.357468,6.24526 3.275151,2.44767 5.974915,4.45031 5.99948,4.45031 0.02459,0 0.15393,-0.14842 0.287474,-0.32983 l 0.242806,-0.32984 -5.155533,-6.54549 c -2.835547,-3.60003 -5.807992,-7.37294 -6.605435,-8.38426 -0.797443,-1.01131 -1.448997,-1.85074 -1.447888,-1.86539 0.0052,-0.0709 3.153578,-2.56462 3.209524,-2.54231 0.03544,0.0142 2.990471,3.6008 6.566712,7.97036 3.576236,4.36956 6.519348,7.94575 6.540248,7.94709 0.04987,0.003 0.56591,-0.43909 0.570995,-0.48939 0.0023,-0.0213 -1.653627,-4.25446 -3.679523,-9.40694 -2.025897,-5.15248 -3.739419,-9.5151 -3.807821,-9.69469 l -0.124367,-0.32655 2.294808,-0.96883 c 1.26215,-0.53286 2.30028,-0.96152 2.306959,-0.95259 0.0067,0.009 1.625622,4.28535 3.597655,9.50314 1.972033,5.21779 3.590509,9.49261 3.59661,9.49961 0.0061,0.007 0.141284,-0.029 0.300398,-0.0799 l 0.289298,-0.0927 0.01345,-10.53951 0.01345,-10.53951 h 3.677371 3.677371 v 19.50676 19.50675 H 53.344622 33.171652 Z"
       style="fill:#ea7100;fill-opacity:1;stroke-width:0.577188"
       id="path1-7" /></g></svg>
