<?xml version="1.0" encoding="UTF-8" standalone="no"?>
<!-- Created with Inkscape (http://www.inkscape.org/) -->

<svg
   width="7.3516827mm"
   height="5.8484802mm"
   viewBox="0 0 7.3516827 5.8484802"
   version="1.1"
   id="svg1"
   xml:space="preserve"
   xmlns="http://www.w3.org/2000/svg"
   xmlns:svg="http://www.w3.org/2000/svg"><defs
     id="defs1" /><g
     id="layer1"
     transform="translate(-154.07125,-163.45499)"><rect
       style="fill:#0f0f0f;fill-opacity:1;fill-rule:evenodd;stroke:#000000;stroke-width:0.17969;stroke-linejoin:round;stroke-opacity:0"
       id="rect4"
       width="7.1719971"
       height="5.668776"
       x="154.1611"
       y="163.54483" /><path
       d="m 158.96203,167.4662 c 0.14246,-0.16291 0.28388,-0.43775 0.33993,-0.66062 0.0519,-0.20637 0.0588,-0.59149 0.0142,-0.79051 -0.0433,-0.19315 -0.20741,-0.54233 -0.31342,-0.66699 -0.078,-0.0916 -0.0897,-0.0972 -0.13482,-0.0628 -0.0477,0.0364 -0.0463,0.0416 0.0419,0.15316 0.35159,0.44538 0.41491,1.1121 0.15603,1.64269 -0.0641,0.13122 -0.21195,0.34062 -0.28343,0.40122 -0.0311,0.0263 -0.0313,0.0375 -0.002,0.0715 0.019,0.0221 0.0422,0.0407 0.0514,0.0412 0.009,5.7e-4 0.0679,-0.0574 0.13041,-0.12886 z"
       style="fill:#ffffff;fill-opacity:1;stroke-width:0.0982138"
       id="path1-2-5" /><path
       d="m 159.91592,168.11066 c 0.23406,-0.26767 0.46643,-0.71924 0.55851,-1.08542 0.0853,-0.33908 0.0966,-0.97185 0.0234,-1.29884 -0.0711,-0.31735 -0.34077,-0.89107 -0.51496,-1.09588 -0.12815,-0.15051 -0.14737,-0.1597 -0.22151,-0.10314 -0.0783,0.0598 -0.0761,0.0684 0.0689,0.25165 0.57767,0.73177 0.68171,1.82721 0.25637,2.69899 -0.10528,0.2156 -0.34824,0.55965 -0.4657,0.65922 -0.0511,0.0432 -0.0514,0.0616 -0.003,0.11747 0.0312,0.0363 0.0693,0.0668 0.0845,0.0677 0.0147,9.4e-4 0.11154,-0.0944 0.21427,-0.21173 z"
       style="fill:#ffffff;fill-opacity:1;stroke-width:0.161369"
       id="path1-2-6-4" /><path
       d="m 156.49113,167.4478 c -0.14246,-0.16291 -0.28388,-0.43775 -0.33993,-0.66062 -0.0519,-0.20637 -0.0588,-0.59149 -0.0142,-0.79051 0.0433,-0.19315 0.20741,-0.54233 0.31342,-0.66699 0.078,-0.0916 0.0897,-0.0972 0.13482,-0.0628 0.0477,0.0364 0.0463,0.0416 -0.0419,0.15316 -0.35159,0.44538 -0.41491,1.1121 -0.15603,1.64269 0.0641,0.13122 0.21195,0.34062 0.28343,0.40122 0.0311,0.0263 0.0313,0.0375 0.002,0.0715 -0.019,0.0221 -0.0422,0.0407 -0.0514,0.0412 -0.009,5.7e-4 -0.0679,-0.0574 -0.13041,-0.12886 z"
       style="fill:#ffffff;fill-opacity:1;stroke-width:0.0982138"
       id="path1-2-1-3" /><path
       d="m 155.53724,168.09226 c -0.23406,-0.26767 -0.46643,-0.71924 -0.55851,-1.08542 -0.0853,-0.33908 -0.0966,-0.97185 -0.0234,-1.29884 0.0711,-0.31735 0.34077,-0.89107 0.51496,-1.09588 0.12815,-0.15051 0.14737,-0.1597 0.22151,-0.10314 0.0783,0.0598 0.0761,0.0684 -0.0689,0.25165 -0.57767,0.73177 -0.68171,1.82721 -0.25637,2.69899 0.10528,0.2156 0.34824,0.55965 0.4657,0.65922 0.0511,0.0432 0.0514,0.0616 0.003,0.11747 -0.0312,0.0363 -0.0693,0.0668 -0.0845,0.0677 -0.0147,9.4e-4 -0.11154,-0.0944 -0.21427,-0.21173 z"
       style="fill:#ffffff;fill-opacity:1;stroke-width:0.161369"
       id="path1-2-6-8-1" /><path
       style="fill:#ff0000;fill-opacity:1;fill-rule:evenodd;stroke:#000000;stroke-width:0.2;stroke-linejoin:round;stroke-opacity:0"
       id="path4-2"
       d="m 158.31403,166.3177 a 0.56940186,0.56940186 0 0 1 -0.56757,0.5694 0.56940186,0.56940186 0 0 1 -0.57122,-0.56573 0.56940186,0.56940186 0 0 1 0.56388,-0.57304 0.56940186,0.56940186 0 0 1 0.57486,0.56203" /></g></svg>
